<svg xmlns="http://www.w3.org/2000/svg" width="1280" height="720" viewBox="0 0 1280 720" data-max-displayed-open-time="1785709800000" data-confirmation-candle-open-time="1785709800000" data-future-bars="0" data-label-leak="none">
<rect width="100%" height="100%" fill="#10151d"/>
<text x="82" y="38" fill="#eef3f8" font-family="sans-serif" font-size="20" font-weight="600">BTCUSDT · 5m · BLIND-025 · SWING_HIGH</text>
<text x="82" y="62" fill="#9aa9b8" font-family="sans-serif" font-size="13">CONFIRMED AT 2026-08-03 06:34 UTC+8 · right edge is the confirmation candle</text>
<text x="82" y="82" fill="#9aa9b8" font-family="sans-serif" font-size="13">Judge ONLY the intrinsic significance of the marked turning point. No labels, no verdicts, no future bars are shown.</text>
<line x1="82" y1="96.00" x2="1252" y2="96.00" stroke="#27313d" stroke-width="1"/>
<text x="74" y="100.00" text-anchor="end" fill="#9aa9b8" font-family="monospace" font-size="12">63837.56</text>
<line x1="82" y1="222.50" x2="1252" y2="222.50" stroke="#27313d" stroke-width="1"/>
<text x="74" y="226.50" text-anchor="end" fill="#9aa9b8" font-family="monospace" font-size="12">63625.28</text>
<line x1="82" y1="349.00" x2="1252" y2="349.00" stroke="#27313d" stroke-width="1"/>
<text x="74" y="353.00" text-anchor="end" fill="#9aa9b8" font-family="monospace" font-size="12">63413.00</text>
<line x1="82" y1="475.50" x2="1252" y2="475.50" stroke="#27313d" stroke-width="1"/>
<text x="74" y="479.50" text-anchor="end" fill="#9aa9b8" font-family="monospace" font-size="12">63200.72</text>
<line x1="82" y1="602.00" x2="1252" y2="602.00" stroke="#27313d" stroke-width="1"/>
<text x="74" y="606.00" text-anchor="end" fill="#9aa9b8" font-family="monospace" font-size="12">62988.44</text>
<g data-candle-open-time="1785687000000"><line x1="89.60" y1="526.05" x2="89.60" y2="547.26" stroke="#e05d68" stroke-width="1.4"/>
<rect x="84.89" y="535.40" width="9.42" height="11.86" fill="#e05d68"/></g>
<g data-candle-open-time="1785687300000"><line x1="104.79" y1="547.20" x2="104.79" y2="567.10" stroke="#e05d68" stroke-width="1.4"/>
<rect x="100.08" y="547.26" width="9.42" height="19.84" fill="#e05d68"/></g>
<g data-candle-open-time="1785687600000"><line x1="119.99" y1="530.63" x2="119.99" y2="567.10" stroke="#38b68b" stroke-width="1.4"/>
<rect x="115.28" y="530.69" width="9.42" height="36.35" fill="#38b68b"/></g>
<g data-candle-open-time="1785687900000"><line x1="135.18" y1="530.69" x2="135.18" y2="557.27" stroke="#e05d68" stroke-width="1.4"/>
<rect x="130.47" y="530.75" width="9.42" height="12.57" fill="#e05d68"/></g>
<g data-candle-open-time="1785688200000"><line x1="150.38" y1="496.43" x2="150.38" y2="549.94" stroke="#38b68b" stroke-width="1.4"/>
<rect x="145.67" y="502.21" width="9.42" height="41.06" fill="#38b68b"/></g>
<g data-candle-open-time="1785688500000"><line x1="165.57" y1="480.52" x2="165.57" y2="514.66" stroke="#38b68b" stroke-width="1.4"/>
<rect x="160.86" y="485.34" width="9.42" height="16.80" fill="#38b68b"/></g>
<g data-candle-open-time="1785688800000"><line x1="180.77" y1="440.89" x2="180.77" y2="492.38" stroke="#38b68b" stroke-width="1.4"/>
<rect x="176.06" y="476.64" width="9.42" height="8.76" fill="#38b68b"/></g>
<g data-candle-open-time="1785689100000"><line x1="195.96" y1="469.02" x2="195.96" y2="484.87" stroke="#e05d68" stroke-width="1.4"/>
<rect x="191.25" y="476.64" width="9.42" height="7.51" fill="#e05d68"/></g>
<g data-candle-open-time="1785689400000"><line x1="211.16" y1="484.15" x2="211.16" y2="499.71" stroke="#e05d68" stroke-width="1.4"/>
<rect x="206.45" y="484.15" width="9.42" height="15.55" fill="#e05d68"/></g>
<g data-candle-open-time="1785689700000"><line x1="226.35" y1="485.70" x2="226.35" y2="500.60" stroke="#e05d68" stroke-width="1.4"/>
<rect x="221.64" y="499.71" width="9.42" height="1.00" fill="#e05d68"/></g>
<g data-candle-open-time="1785690000000"><line x1="241.55" y1="491.72" x2="241.55" y2="511.09" stroke="#38b68b" stroke-width="1.4"/>
<rect x="236.84" y="491.84" width="9.42" height="8.76" fill="#38b68b"/></g>
<g data-candle-open-time="1785690300000"><line x1="256.74" y1="491.84" x2="256.74" y2="517.40" stroke="#e05d68" stroke-width="1.4"/>
<rect x="252.03" y="491.84" width="9.42" height="25.56" fill="#e05d68"/></g>
<g data-candle-open-time="1785690600000"><line x1="271.94" y1="476.58" x2="271.94" y2="517.64" stroke="#38b68b" stroke-width="1.4"/>
<rect x="267.22" y="481.29" width="9.42" height="36.11" fill="#38b68b"/></g>
<g data-candle-open-time="1785690900000"><line x1="287.13" y1="481.29" x2="287.13" y2="496.01" stroke="#e05d68" stroke-width="1.4"/>
<rect x="282.42" y="481.35" width="9.42" height="4.11" fill="#e05d68"/></g>
<g data-candle-open-time="1785691200000"><line x1="302.32" y1="402.27" x2="302.32" y2="486.24" stroke="#38b68b" stroke-width="1.4"/>
<rect x="297.61" y="402.27" width="9.42" height="83.19" fill="#38b68b"/></g>
<g data-candle-open-time="1785691500000"><line x1="317.52" y1="402.27" x2="317.52" y2="457.10" stroke="#e05d68" stroke-width="1.4"/>
<rect x="312.81" y="402.27" width="9.42" height="34.74" fill="#e05d68"/></g>
<g data-candle-open-time="1785691800000"><line x1="332.71" y1="416.40" x2="332.71" y2="437.08" stroke="#38b68b" stroke-width="1.4"/>
<rect x="328.00" y="434.87" width="9.42" height="2.20" fill="#38b68b"/></g>
<g data-candle-open-time="1785692100000"><line x1="347.91" y1="414.37" x2="347.91" y2="434.87" stroke="#38b68b" stroke-width="1.4"/>
<rect x="343.20" y="421.76" width="9.42" height="13.11" fill="#38b68b"/></g>
<g data-candle-open-time="1785692400000"><line x1="363.10" y1="415.03" x2="363.10" y2="433.92" stroke="#38b68b" stroke-width="1.4"/>
<rect x="358.39" y="415.03" width="9.42" height="6.79" fill="#38b68b"/></g>
<g data-candle-open-time="1785692700000"><line x1="378.30" y1="410.38" x2="378.30" y2="423.61" stroke="#38b68b" stroke-width="1.4"/>
<rect x="373.59" y="413.60" width="9.42" height="1.49" fill="#38b68b"/></g>
<g data-candle-open-time="1785693000000"><line x1="393.49" y1="413.60" x2="393.49" y2="425.75" stroke="#e05d68" stroke-width="1.4"/>
<rect x="388.78" y="413.60" width="9.42" height="12.16" fill="#e05d68"/></g>
<g data-candle-open-time="1785693300000"><line x1="408.69" y1="422.60" x2="408.69" y2="428.55" stroke="#e05d68" stroke-width="1.4"/>
<rect x="403.98" y="425.69" width="9.42" height="2.74" fill="#e05d68"/></g>
<g data-candle-open-time="1785693600000"><line x1="423.88" y1="410.97" x2="423.88" y2="428.49" stroke="#38b68b" stroke-width="1.4"/>
<rect x="419.17" y="411.03" width="9.42" height="17.46" fill="#38b68b"/></g>
<g data-candle-open-time="1785693900000"><line x1="439.08" y1="410.38" x2="439.08" y2="434.27" stroke="#e05d68" stroke-width="1.4"/>
<rect x="434.37" y="411.03" width="9.42" height="23.24" fill="#e05d68"/></g>
<g data-candle-open-time="1785694200000"><line x1="454.27" y1="419.32" x2="454.27" y2="434.27" stroke="#38b68b" stroke-width="1.4"/>
<rect x="449.56" y="420.75" width="9.42" height="13.53" fill="#38b68b"/></g>
<g data-candle-open-time="1785694500000"><line x1="469.47" y1="418.96" x2="469.47" y2="434.27" stroke="#38b68b" stroke-width="1.4"/>
<rect x="464.76" y="419.08" width="9.42" height="1.73" fill="#38b68b"/></g>
<g data-candle-open-time="1785694800000"><line x1="484.66" y1="413.36" x2="484.66" y2="419.08" stroke="#38b68b" stroke-width="1.4"/>
<rect x="479.95" y="419.02" width="9.42" height="1.00" fill="#38b68b"/></g>
<g data-candle-open-time="1785695100000"><line x1="499.86" y1="419.08" x2="499.86" y2="436.36" stroke="#e05d68" stroke-width="1.4"/>
<rect x="495.15" y="419.08" width="9.42" height="15.79" fill="#e05d68"/></g>
<g data-candle-open-time="1785695400000"><line x1="515.05" y1="420.03" x2="515.05" y2="434.87" stroke="#38b68b" stroke-width="1.4"/>
<rect x="510.34" y="420.09" width="9.42" height="14.72" fill="#38b68b"/></g>
<g data-candle-open-time="1785695700000"><line x1="530.25" y1="346.38" x2="530.25" y2="420.09" stroke="#38b68b" stroke-width="1.4"/>
<rect x="525.54" y="354.96" width="9.42" height="65.07" fill="#38b68b"/></g>
<g data-candle-open-time="1785696000000"><line x1="545.44" y1="240.78" x2="545.44" y2="356.69" stroke="#38b68b" stroke-width="1.4"/>
<rect x="540.73" y="307.58" width="9.42" height="47.32" fill="#38b68b"/></g>
<g data-candle-open-time="1785696300000"><line x1="560.64" y1="301.45" x2="560.64" y2="364.91" stroke="#e05d68" stroke-width="1.4"/>
<rect x="555.93" y="307.52" width="9.42" height="53.10" fill="#e05d68"/></g>
<g data-candle-open-time="1785696600000"><line x1="575.83" y1="360.56" x2="575.83" y2="386.36" stroke="#e05d68" stroke-width="1.4"/>
<rect x="571.12" y="360.56" width="9.42" height="15.37" fill="#e05d68"/></g>
<g data-candle-open-time="1785696900000"><line x1="591.03" y1="375.82" x2="591.03" y2="380.29" stroke="#e05d68" stroke-width="1.4"/>
<rect x="586.32" y="375.99" width="9.42" height="2.09" fill="#e05d68"/></g>
<g data-candle-open-time="1785697200000"><line x1="606.22" y1="372.78" x2="606.22" y2="402.75" stroke="#e05d68" stroke-width="1.4"/>
<rect x="601.51" y="378.08" width="9.42" height="19.43" fill="#e05d68"/></g>
<g data-candle-open-time="1785697500000"><line x1="621.42" y1="380.76" x2="621.42" y2="398.58" stroke="#e05d68" stroke-width="1.4"/>
<rect x="616.71" y="397.51" width="9.42" height="1.00" fill="#e05d68"/></g>
<g data-candle-open-time="1785697800000"><line x1="636.61" y1="384.10" x2="636.61" y2="400.55" stroke="#38b68b" stroke-width="1.4"/>
<rect x="631.90" y="394.83" width="9.42" height="3.16" fill="#38b68b"/></g>
<g data-candle-open-time="1785698100000"><line x1="651.81" y1="384.81" x2="651.81" y2="394.83" stroke="#38b68b" stroke-width="1.4"/>
<rect x="647.09" y="394.05" width="9.42" height="1.00" fill="#38b68b"/></g>
<g data-candle-open-time="1785698400000"><line x1="667.00" y1="384.81" x2="667.00" y2="395.78" stroke="#e05d68" stroke-width="1.4"/>
<rect x="662.29" y="394.05" width="9.42" height="1.00" fill="#e05d68"/></g>
<g data-candle-open-time="1785698700000"><line x1="682.19" y1="394.83" x2="682.19" y2="412.76" stroke="#e05d68" stroke-width="1.4"/>
<rect x="677.48" y="394.89" width="9.42" height="17.88" fill="#e05d68"/></g>
<g data-candle-open-time="1785699000000"><line x1="697.39" y1="405.73" x2="697.39" y2="412.76" stroke="#38b68b" stroke-width="1.4"/>
<rect x="692.68" y="405.79" width="9.42" height="6.91" fill="#38b68b"/></g>
<g data-candle-open-time="1785699300000"><line x1="712.58" y1="384.46" x2="712.58" y2="405.79" stroke="#38b68b" stroke-width="1.4"/>
<rect x="707.87" y="384.46" width="9.42" height="21.27" fill="#38b68b"/></g>
<g data-candle-open-time="1785699600000"><line x1="727.78" y1="368.01" x2="727.78" y2="384.52" stroke="#38b68b" stroke-width="1.4"/>
<rect x="723.07" y="368.31" width="9.42" height="16.15" fill="#38b68b"/></g>
<g data-candle-open-time="1785699900000"><line x1="742.97" y1="324.57" x2="742.97" y2="368.31" stroke="#38b68b" stroke-width="1.4"/>
<rect x="738.26" y="324.57" width="9.42" height="43.74" fill="#38b68b"/></g>
<g data-candle-open-time="1785700200000"><line x1="758.17" y1="321.11" x2="758.17" y2="339.23" stroke="#e05d68" stroke-width="1.4"/>
<rect x="753.46" y="324.63" width="9.42" height="10.55" fill="#e05d68"/></g>
<g data-candle-open-time="1785700500000"><line x1="773.36" y1="334.28" x2="773.36" y2="341.73" stroke="#e05d68" stroke-width="1.4"/>
<rect x="768.65" y="335.23" width="9.42" height="1.91" fill="#e05d68"/></g>
<g data-candle-open-time="1785700800000"><line x1="788.56" y1="327.31" x2="788.56" y2="357.34" stroke="#e05d68" stroke-width="1.4"/>
<rect x="783.85" y="337.08" width="9.42" height="20.26" fill="#e05d68"/></g>
<g data-candle-open-time="1785701100000"><line x1="803.75" y1="337.92" x2="803.75" y2="361.93" stroke="#38b68b" stroke-width="1.4"/>
<rect x="799.04" y="337.98" width="9.42" height="19.49" fill="#38b68b"/></g>
<g data-candle-open-time="1785701400000"><line x1="818.95" y1="332.14" x2="818.95" y2="356.87" stroke="#38b68b" stroke-width="1.4"/>
<rect x="814.24" y="332.14" width="9.42" height="5.84" fill="#38b68b"/></g>
<g data-candle-open-time="1785701700000"><line x1="834.14" y1="310.27" x2="834.14" y2="338.81" stroke="#38b68b" stroke-width="1.4"/>
<rect x="829.43" y="324.63" width="9.42" height="7.51" fill="#38b68b"/></g>
<g data-candle-open-time="1785702000000"><line x1="849.34" y1="321.83" x2="849.34" y2="356.15" stroke="#e05d68" stroke-width="1.4"/>
<rect x="844.63" y="324.69" width="9.42" height="31.46" fill="#e05d68"/></g>
<g data-candle-open-time="1785702300000"><line x1="864.53" y1="356.09" x2="864.53" y2="366.88" stroke="#e05d68" stroke-width="1.4"/>
<rect x="859.82" y="356.15" width="9.42" height="7.15" fill="#e05d68"/></g>
<g data-candle-open-time="1785702600000"><line x1="879.73" y1="334.40" x2="879.73" y2="363.30" stroke="#38b68b" stroke-width="1.4"/>
<rect x="875.02" y="336.84" width="9.42" height="26.46" fill="#38b68b"/></g>
<g data-candle-open-time="1785702900000"><line x1="894.92" y1="336.78" x2="894.92" y2="356.15" stroke="#e05d68" stroke-width="1.4"/>
<rect x="890.21" y="336.78" width="9.42" height="19.31" fill="#e05d68"/></g>
<g data-candle-open-time="1785703200000"><line x1="910.12" y1="348.52" x2="910.12" y2="356.15" stroke="#38b68b" stroke-width="1.4"/>
<rect x="905.41" y="348.58" width="9.42" height="7.51" fill="#38b68b"/></g>
<g data-candle-open-time="1785703500000"><line x1="925.31" y1="307.11" x2="925.31" y2="360.26" stroke="#38b68b" stroke-width="1.4"/>
<rect x="920.60" y="316.05" width="9.42" height="32.48" fill="#38b68b"/></g>
<g data-candle-open-time="1785703800000"><line x1="940.51" y1="315.99" x2="940.51" y2="332.85" stroke="#e05d68" stroke-width="1.4"/>
<rect x="935.80" y="315.99" width="9.42" height="11.56" fill="#e05d68"/></g>
<g data-candle-open-time="1785704100000"><line x1="955.70" y1="307.46" x2="955.70" y2="327.61" stroke="#38b68b" stroke-width="1.4"/>
<rect x="950.99" y="310.74" width="9.42" height="16.86" fill="#38b68b"/></g>
<g data-candle-open-time="1785704400000"><line x1="970.90" y1="265.04" x2="970.90" y2="321.05" stroke="#38b68b" stroke-width="1.4"/>
<rect x="966.19" y="266.41" width="9.42" height="44.28" fill="#38b68b"/></g>
<g data-candle-open-time="1785704700000"><line x1="986.09" y1="264.80" x2="986.09" y2="297.16" stroke="#e05d68" stroke-width="1.4"/>
<rect x="981.38" y="266.35" width="9.42" height="24.25" fill="#e05d68"/></g>
<g data-candle-open-time="1785705000000"><line x1="1001.29" y1="283.39" x2="1001.29" y2="302.16" stroke="#e05d68" stroke-width="1.4"/>
<rect x="996.58" y="290.60" width="9.42" height="3.87" fill="#e05d68"/></g>
<g data-candle-open-time="1785705300000"><line x1="1016.48" y1="276.72" x2="1016.48" y2="304.31" stroke="#e05d68" stroke-width="1.4"/>
<rect x="1011.77" y="294.47" width="9.42" height="5.12" fill="#e05d68"/></g>
<g data-candle-open-time="1785705600000"><line x1="1031.68" y1="291.32" x2="1031.68" y2="299.60" stroke="#38b68b" stroke-width="1.4"/>
<rect x="1026.96" y="291.85" width="9.42" height="7.75" fill="#38b68b"/></g>
<g data-candle-open-time="1785705900000"><line x1="1046.87" y1="283.57" x2="1046.87" y2="304.31" stroke="#38b68b" stroke-width="1.4"/>
<rect x="1042.16" y="283.57" width="9.42" height="8.28" fill="#38b68b"/></g>
<g data-candle-open-time="1785706200000"><line x1="1062.06" y1="266.88" x2="1062.06" y2="296.14" stroke="#e05d68" stroke-width="1.4"/>
<rect x="1057.35" y="283.57" width="9.42" height="9.12" fill="#e05d68"/></g>
<g data-candle-open-time="1785706500000"><line x1="1077.26" y1="262.47" x2="1077.26" y2="301.51" stroke="#e05d68" stroke-width="1.4"/>
<rect x="1072.55" y="292.69" width="9.42" height="8.58" fill="#e05d68"/></g>
<g data-candle-open-time="1785706800000"><line x1="1092.45" y1="138.58" x2="1092.45" y2="305.92" stroke="#38b68b" stroke-width="1.4"/>
<rect x="1087.74" y="192.57" width="9.42" height="108.69" fill="#38b68b"/></g>
<g data-candle-open-time="1785707100000"><line x1="1107.65" y1="133.52" x2="1107.65" y2="216.71" stroke="#e05d68" stroke-width="1.4"/>
<rect x="1102.94" y="192.57" width="9.42" height="6.73" fill="#e05d68"/></g>
<g data-candle-open-time="1785707400000"><line x1="1122.84" y1="188.70" x2="1122.84" y2="246.62" stroke="#e05d68" stroke-width="1.4"/>
<rect x="1118.13" y="199.37" width="9.42" height="45.65" fill="#e05d68"/></g>
<g data-candle-open-time="1785707700000"><line x1="1138.04" y1="229.94" x2="1138.04" y2="277.85" stroke="#e05d68" stroke-width="1.4"/>
<rect x="1133.33" y="245.01" width="9.42" height="16.39" fill="#e05d68"/></g>
<g data-candle-open-time="1785708000000"><line x1="1153.23" y1="166.17" x2="1153.23" y2="261.46" stroke="#38b68b" stroke-width="1.4"/>
<rect x="1148.52" y="193.88" width="9.42" height="67.52" fill="#38b68b"/></g>
<g data-candle-open-time="1785708300000"><line x1="1168.43" y1="171.42" x2="1168.43" y2="224.69" stroke="#38b68b" stroke-width="1.4"/>
<rect x="1163.72" y="184.35" width="9.42" height="9.36" fill="#38b68b"/></g>
<g data-candle-open-time="1785708600000"><line x1="1183.62" y1="130.90" x2="1183.62" y2="195.31" stroke="#e05d68" stroke-width="1.4"/>
<rect x="1178.91" y="184.35" width="9.42" height="8.52" fill="#e05d68"/></g>
<g data-candle-open-time="1785708900000"><line x1="1198.82" y1="136.50" x2="1198.82" y2="214.56" stroke="#e05d68" stroke-width="1.4"/>
<rect x="1194.11" y="192.87" width="9.42" height="7.87" fill="#e05d68"/></g>
<g data-candle-open-time="1785709200000"><line x1="1214.01" y1="190.85" x2="1214.01" y2="217.72" stroke="#e05d68" stroke-width="1.4"/>
<rect x="1209.30" y="200.80" width="9.42" height="11.14" fill="#e05d68"/></g>
<g data-candle-open-time="1785709500000"><line x1="1229.21" y1="208.19" x2="1229.21" y2="264.98" stroke="#e05d68" stroke-width="1.4"/>
<rect x="1224.50" y="211.94" width="9.42" height="42.79" fill="#e05d68"/></g>
<g data-candle-open-time="1785709800000"><line x1="1244.40" y1="249.07" x2="1244.40" y2="344.53" stroke="#e05d68" stroke-width="1.4"/>
<rect x="1239.69" y="254.79" width="9.42" height="85.33" fill="#e05d68"/></g>
<line x1="1244.40" y1="96" x2="1244.40" y2="602" stroke="#c3cad3" stroke-width="2" stroke-dasharray="6 5"/>
<circle cx="1183.62" cy="130.90" r="6" fill="#57a6ff" stroke="#f7fafc" stroke-width="2"/>
<line x1="1183.62" y1="139.90" x2="1183.62" y2="610" stroke="#57a6ff" stroke-width="1.5" stroke-dasharray="4 4"/>
<text x="82" y="638" fill="#57a6ff" font-family="sans-serif" font-size="15" font-weight="600">MARKED TURNING POINT · 2026-08-03 06:10 UTC+8 · 63779</text>
<text x="82" y="664" fill="#8594a4" font-family="sans-serif" font-size="13">Detection is already confirmed and frozen. Your task is significance only — never re-place, move or re-price the point.</text>
<text x="1252" y="702" text-anchor="end" fill="#8594a4" font-family="sans-serif" font-size="12">candle labels use open time · pre-confirmation data only</text>
</svg>
