<svg xmlns="http://www.w3.org/2000/svg" width="1240" height="720" viewBox="0 0 1240 720">
<rect width="100%" height="100%" fill="#f7f8fa"/>
<style>text{font-family:ui-monospace,SFMono-Regular,Menlo,monospace;fill:#20242b}.small{font-size:12px}.title{font-size:20px;font-weight:650}.sub{font-size:14px;fill:#59616d}</style>
<text x="86" y="30" class="title">BLIND-033</text>
<text x="86" y="53" class="sub">ZECUSDT · 5m · PDL · SSL</text>
<rect x="86" y="76" width="994" height="578" fill="#fff" stroke="#c9ced6"/>
<rect x="816.2857142857143" y="76" width="20.285714285714285" height="578" fill="#ebe7f4" opacity="0.8"/>
<line x1="86" y1="76" x2="1080" y2="76" stroke="#edf0f3"/>
<text x="8" y="80" class="small">834.4092</text>
<line x1="86" y1="220.5" x2="1080" y2="220.5" stroke="#edf0f3"/>
<text x="8" y="224.5" class="small">823.8271</text>
<line x1="86" y1="365" x2="1080" y2="365" stroke="#edf0f3"/>
<text x="8" y="369" class="small">813.245</text>
<line x1="86" y1="509.5" x2="1080" y2="509.5" stroke="#edf0f3"/>
<text x="8" y="513.5" class="small">802.6629</text>
<line x1="86" y1="654" x2="1080" y2="654" stroke="#edf0f3"/>
<text x="8" y="658" class="small">792.0808</text>
<line x1="86" y1="592.1531643057609" x2="1080" y2="592.1531643057609" stroke="#665c85" stroke-width="2" stroke-dasharray="7 4"/>
<text x="1088" y="596.1531643057609" class="small">PDL 796.61</text>
<line x1="96.14285714285714" y1="229.88244299335727" x2="96.14285714285714" y2="327.38010413812015" stroke="#424852"/>
<rect x="89.85428571428571" y="257.4658149138643" width="12.577142857142857" height="47.65641980325262" fill="#59616c" stroke="#424852"/>
<line x1="116.42857142857143" y1="241.07965337692863" x2="116.42857142857143" y2="337.0752497141405" stroke="#424852"/>
<rect x="110.14" y="304.98568337097595" width="12.577142857142857" height="28.266128651211943" fill="#59616c" stroke="#424852"/>
<line x1="136.71428571428572" y1="141.53372204004916" x2="136.71428571428572" y2="341.03523875223266" stroke="#424852"/>
<rect x="130.4257142857143" y="144.4013003090133" width="12.577142857142857" height="189.39671709774015" fill="#d5dbe2" stroke="#424852"/>
<line x1="157" y1="115.86206896551778" x2="157" y2="199.1583901116042" stroke="#424852"/>
<rect x="150.71142857142857" y="143.8550949244477" width="12.577142857142857" height="46.837111726406704" fill="#59616c" stroke="#424852"/>
<line x1="177.28571428571428" y1="176.21776395989437" x2="177.28571428571428" y2="317.95806125438185" stroke="#424852"/>
<rect x="170.99714285714285" y="190.82875799699542" width="12.577142857142857" height="96.81490441405793" fill="#59616c" stroke="#424852"/>
<line x1="197.57142857142856" y1="252.00376106821955" x2="197.57142857142856" y2="348.8186654822775" stroke="#424852"/>
<rect x="191.28285714285713" y="287.23400837262875" width="12.577142857142857" height="6.9641186531987955" fill="#59616c" stroke="#424852"/>
<line x1="217.85714285714286" y1="287.09745702648775" x2="217.85714285714286" y2="456.8307802799067" stroke="#424852"/>
<rect x="211.56857142857143" y="294.19812702582755" width="12.577142857142857" height="98.99972595231543" fill="#59616c" stroke="#424852"/>
<line x1="238.14285714285714" y1="290.2381379877339" x2="238.14285714285714" y2="415.04606836072173" stroke="#424852"/>
<rect x="231.8542857142857" y="297.7484620254967" width="12.577142857142857" height="95.31283960650381" fill="#d5dbe2" stroke="#424852"/>
<line x1="258.42857142857144" y1="238.62172914638907" x2="258.42857142857144" y2="318.9139206773704" stroke="#424852"/>
<rect x="252.14000000000001" y="268.1168199128716" width="12.577142857142857" height="29.358539420341458" fill="#d5dbe2" stroke="#424852"/>
<line x1="278.7142857142857" y1="245.4492964534453" x2="278.7142857142857" y2="327.24355279197914" stroke="#424852"/>
<rect x="272.4257142857143" y="268.2533712590126" width="12.577142857142857" height="18.024777690629094" fill="#59616c" stroke="#424852"/>
<line x1="299" y1="265.52234433619105" x2="299" y2="339.1235199062571" stroke="#424852"/>
<rect x="292.7114285714286" y="286.82435433420574" width="12.577142857142857" height="33.18197711229419" fill="#59616c" stroke="#424852"/>
<line x1="319.2857142857143" y1="280.9526464501381" x2="319.2857142857143" y2="352.095897789663" stroke="#424852"/>
<rect x="312.9971428571429" y="315.09048298541927" width="12.577142857142857" height="4.779297114939652" fill="#d5dbe2" stroke="#424852"/>
<line x1="339.57142857142856" y1="211.4480112643051" x2="339.57142857142856" y2="325.1952825998626" stroke="#424852"/>
<rect x="333.28285714285715" y="243.94723164589277" width="12.577142857142857" height="71.1432513395265" fill="#d5dbe2" stroke="#424852"/>
<line x1="359.85714285714283" y1="143.58199223216573" x2="359.85714285714283" y2="245.8589504918683" stroke="#424852"/>
<rect x="353.56857142857143" y="170.89226146039067" width="12.577142857142857" height="72.09911076251507" fill="#d5dbe2" stroke="#424852"/>
<line x1="380.14285714285717" y1="136.20821954054549" x2="380.14285714285717" y2="212.67697337957568" stroke="#424852"/>
<rect x="373.85428571428577" y="139.0757978095096" width="12.577142857142857" height="31.95301499702208" fill="#d5dbe2" stroke="#424852"/>
<line x1="400.42857142857144" y1="119.8220580036099" x2="400.42857142857144" y2="200.1142495345912" stroke="#424852"/>
<rect x="394.14000000000004" y="139.4854518479326" width="12.577142857142857" height="34.82059326598619" fill="#59616c" stroke="#424852"/>
<line x1="420.7142857142857" y1="166.11296434545255" x2="420.7142857142857" y2="257.73891760614623" stroke="#424852"/>
<rect x="414.4257142857143" y="174.4425964600598" width="12.577142857142857" height="60.49224634051916" fill="#59616c" stroke="#424852"/>
<line x1="441" y1="201.20666030372075" x2="441" y2="329.8380283686597" stroke="#424852"/>
<rect x="434.7114285714286" y="235.07139414671994" width="12.577142857142857" height="91.21629922227069" fill="#59616c" stroke="#424852"/>
<line x1="461.2857142857143" y1="276.0367979890574" x2="461.2857142857143" y2="362.88345413481295" stroke="#424852"/>
<rect x="454.9971428571429" y="279.58713298872647" width="12.577142857142857" height="48.3391765339577" fill="#d5dbe2" stroke="#424852"/>
<line x1="481.57142857142856" y1="277.1292087581869" x2="481.57142857142856" y2="303.21051587114135" stroke="#424852"/>
<rect x="475.28285714285715" y="279.58713298872647" width="12.577142857142857" height="13.382031921830503" fill="#59616c" stroke="#424852"/>
<line x1="501.85714285714283" y1="290.37468933387487" x2="501.85714285714283" y2="511.7244214286386" stroke="#424852"/>
<rect x="495.56857142857143" y="292.83261356441596" width="12.577142857142857" height="140.64788652535793" fill="#59616c" stroke="#424852"/>
<line x1="522.1428571428571" y1="348.40901144385293" x2="522.1428571428571" y2="433.3439487436329" stroke="#424852"/>
<rect x="515.8542857142857" y="388.8282099016264" width="12.577142857142857" height="44.5157388420065" fill="#d5dbe2" stroke="#424852"/>
<line x1="542.4285714285714" y1="368.75516201888064" x2="542.4285714285714" y2="433.75360278205585" stroke="#424852"/>
<rect x="536.14" y="388.8282099016264" width="12.577142857142857" height="31.270258266317" fill="#59616c" stroke="#424852"/>
<line x1="562.7142857142858" y1="379.5427183640305" x2="562.7142857142858" y2="463.931450279245" stroke="#424852"/>
<rect x="556.4257142857143" y="400.16197163134024" width="12.577142857142857" height="19.93649653660316" fill="#d5dbe2" stroke="#424852"/>
<line x1="583" y1="355.6462327893337" x2="583" y2="411.4957333610526" stroke="#424852"/>
<rect x="576.7114285714285" y="400.29852297748124" width="12.577142857142857" height="5.735156537926741" fill="#59616c" stroke="#424852"/>
<line x1="603.2857142857143" y1="395.6557772086826" x2="603.2857142857143" y2="501.34651912191333" stroke="#424852"/>
<rect x="596.9971428571429" y="406.033679515408" width="12.577142857142857" height="46.5640090341231" fill="#59616c" stroke="#424852"/>
<line x1="623.5714285714286" y1="396.8847393239531" x2="623.5714285714286" y2="468.1645420096191" stroke="#424852"/>
<rect x="617.2828571428571" y="430.2032677823868" width="12.577142857142857" height="22.39442076714431" fill="#d5dbe2" stroke="#424852"/>
<line x1="643.8571428571429" y1="396.7481879778121" x2="643.8571428571429" y2="433.0708460513509" stroke="#424852"/>
<rect x="637.5685714285714" y="412.45159278404117" width="12.577142857142857" height="17.068918267640584" fill="#d5dbe2" stroke="#424852"/>
<line x1="664.1428571428571" y1="402.7564472080208" x2="664.1428571428571" y2="446.4528779731814" stroke="#424852"/>
<rect x="657.8542857142857" y="412.45159278404117" width="12.577142857142857" height="1.2289621152705763" fill="#59616c" stroke="#424852"/>
<line x1="684.4285714285714" y1="399.20611220835167" x2="684.4285714285714" y2="437.8501431662906" stroke="#424852"/>
<rect x="678.14" y="413.5440035531692" width="12.577142857142857" height="17.88822634448809" fill="#59616c" stroke="#424852"/>
<line x1="704.7142857142857" y1="390.8764800937429" x2="704.7142857142857" y2="460.51766662571686" stroke="#424852"/>
<rect x="698.4257142857142" y="417.2308898989809" width="12.577142857142857" height="14.201339998676417" fill="#d5dbe2" stroke="#424852"/>
<line x1="725" y1="289.8284839493109" x2="725" y2="419.14260874495636" stroke="#424852"/>
<rect x="718.7114285714285" y="317.4118558698178" width="12.577142857142857" height="99.68248268302204" fill="#d5dbe2" stroke="#424852"/>
<line x1="745.2857142857143" y1="309.90153183205655" x2="745.2857142857143" y2="379.26961567174703" stroke="#424852"/>
<rect x="738.9971428571429" y="317.4118558698178" width="12.577142857142857" height="40.692301150055414" fill="#59616c" stroke="#424852"/>
<line x1="765.5714285714286" y1="351.822795097381" x2="765.5714285714286" y2="408.0819497075245" stroke="#424852"/>
<rect x="759.2828571428571" y="358.24070836601425" width="12.577142857142857" height="46.837111726406704" fill="#59616c" stroke="#424852"/>
<line x1="785.8571428571429" y1="396.61163663167116" x2="785.8571428571429" y2="499.9810056605017" stroke="#424852"/>
<rect x="779.5685714285714" y="404.9412687462784" width="12.577142857142857" height="39.73644172706838" fill="#59616c" stroke="#424852"/>
<line x1="806.1428571428571" y1="443.31219701193527" x2="806.1428571428571" y2="489.0568979692124" stroke="#424852"/>
<rect x="799.8542857142857" y="444.5411591272058" width="12.577142857142857" height="37.41506884266835" fill="#59616c" stroke="#424852"/>
<line x1="826.4285714285714" y1="477.58658489335744" x2="826.4285714285714" y2="597.8883208436877" stroke="#424852"/>
<rect x="820.14" y="481.4100225853085" width="12.577142857142857" height="97.224558452481" fill="#59616c" stroke="#424852"/>
<line x1="846.7142857142857" y1="510.6320106595091" x2="846.7142857142857" y2="614.1379310344822" stroke="#424852"/>
<rect x="840.4257142857142" y="521.965772389223" width="12.577142857142857" height="56.80535999470749" fill="#d5dbe2" stroke="#424852"/>
<line x1="867" y1="433.75360278205585" x2="867" y2="529.6126477731252" stroke="#424852"/>
<rect x="860.7114285714285" y="457.92319104903476" width="12.577142857142857" height="64.04258134018829" fill="#d5dbe2" stroke="#424852"/>
<line x1="887.2857142857143" y1="430.2032677823868" x2="887.2857142857143" y2="468.57419604804363" stroke="#424852"/>
<rect x="880.9971428571429" y="439.76186201226614" width="12.577142857142857" height="18.16132903676862" fill="#d5dbe2" stroke="#424852"/>
<line x1="907.5714285714286" y1="402.61989586187985" x2="907.5714285714286" y2="481.54657393144953" stroke="#424852"/>
<rect x="901.2828571428571" y="420.91777624479096" width="12.577142857142857" height="18.707534421334174" fill="#d5dbe2" stroke="#424852"/>
<line x1="927.8571428571429" y1="388.8282099016264" x2="927.8571428571429" y2="423.23914912918957" stroke="#424852"/>
<rect x="921.5685714285714" y="408.90125778437204" width="12.577142857142857" height="12.016518460418922" fill="#d5dbe2" stroke="#424852"/>
<line x1="948.1428571428571" y1="401.9371391311748" x2="948.1428571428571" y2="484.4141522004137" stroke="#424852"/>
<rect x="941.8542857142857" y="408.76470643823103" width="12.577142857142857" height="66.22740287844431" fill="#59616c" stroke="#424852"/>
<line x1="968.4285714285714" y1="471.4417743170062" x2="968.4285714285714" y2="552.5532739248351" stroke="#424852"/>
<rect x="962.14" y="475.1286606628179" width="12.577142857142857" height="73.32807287778405" fill="#59616c" stroke="#424852"/>
<line x1="988.7142857142857" y1="471.4417743170062" x2="988.7142857142857" y2="574.8111433458384" stroke="#424852"/>
<rect x="982.4257142857142" y="528.1105829655743" width="12.577142857142857" height="20.482701921168655" fill="#d5dbe2" stroke="#424852"/>
<line x1="1009" y1="492.33413027659947" x2="1009" y2="564.296689692972" stroke="#424852"/>
<rect x="1002.7114285714285" y="528.1105829655743" width="12.577142857142857" height="17.751674998345493" fill="#59616c" stroke="#424852"/>
<line x1="1029.2857142857142" y1="512.4071781593436" x2="1029.2857142857142" y2="559.2442898857503" stroke="#424852"/>
<rect x="1022.9971428571428" y="512.9533835439092" width="12.577142857142857" height="33.04542576615154" fill="#d5dbe2" stroke="#424852"/>
<line x1="1049.5714285714284" y1="492.8803356611635" x2="1049.5714285714284" y2="523.8774912351985" stroke="#424852"/>
<rect x="1043.282857142857" y="513.4995889284733" width="12.577142857142857" height="1" fill="#d5dbe2" stroke="#424852"/>
<line x1="1069.857142857143" y1="503.3947893140298" x2="1069.857142857143" y2="576.9959648840959" stroke="#424852"/>
<rect x="1063.5685714285714" y="513.4995889284733" width="12.577142857142857" height="61.58465710964708" fill="#59616c" stroke="#424852"/>
<line x1="826.4285714285714" y1="76" x2="826.4285714285714" y2="654" stroke="#756b8f" stroke-width="2" stroke-dasharray="8 6"/>
<text x="746.4285714285714" y="692" class="small">highlighted interaction</text>
</svg>
