<svg xmlns="http://www.w3.org/2000/svg" width="1240" height="720" viewBox="0 0 1240 720">
<rect width="100%" height="100%" fill="#f7f8fa"/>
<style>text{font-family:ui-monospace,SFMono-Regular,Menlo,monospace;fill:#20242b}.small{font-size:12px}.title{font-size:20px;font-weight:650}.sub{font-size:14px;fill:#59616d}</style>
<text x="86" y="30" class="title">BLIND-002</text>
<text x="86" y="53" class="sub">BTCUSDT · 5m · PDL · SSL</text>
<rect x="86" y="76" width="994" height="578" fill="#fff" stroke="#c9ced6"/>
<rect x="816.2857142857143" y="76" width="20.285714285714285" height="578" fill="#ebe7f4" opacity="0.8"/>
<line x1="86" y1="76" x2="1080" y2="76" stroke="#edf0f3"/>
<text x="8" y="80" class="small">80078.952</text>
<line x1="86" y1="220.5" x2="1080" y2="220.5" stroke="#edf0f3"/>
<text x="8" y="224.5" class="small">79212.751</text>
<line x1="86" y1="365" x2="1080" y2="365" stroke="#edf0f3"/>
<text x="8" y="369" class="small">78346.55</text>
<line x1="86" y1="509.5" x2="1080" y2="509.5" stroke="#edf0f3"/>
<text x="8" y="513.5" class="small">77480.349</text>
<line x1="86" y1="654" x2="1080" y2="654" stroke="#edf0f3"/>
<text x="8" y="658" class="small">76614.148</text>
<line x1="86" y1="489.5397719466963" x2="1080" y2="489.5397719466963" stroke="#665c85" stroke-width="2" stroke-dasharray="7 4"/>
<text x="1088" y="493.5397719466963" class="small">PDL 77600</text>
<line x1="96.14285714285714" y1="198.7551272741543" x2="96.14285714285714" y2="213.18509214374" stroke="#424852"/>
<rect x="89.85428571428571" y="198.7551272741543" width="12.577142857142857" height="3.369772142957231" fill="#59616c" stroke="#424852"/>
<line x1="116.42857142857143" y1="202.12489941711152" x2="116.42857142857143" y2="217.40564834259038" stroke="#424852"/>
<rect x="110.14" y="202.14158145742172" width="12.577142857142857" height="14.079642023042283" fill="#59616c" stroke="#424852"/>
<line x1="136.71428571428572" y1="209.94877632327896" x2="136.71428571428572" y2="260.5287225482308" stroke="#424852"/>
<rect x="130.4257142857143" y="216.221223480464" width="12.577142857142857" height="13.062037564027634" fill="#59616c" stroke="#424852"/>
<line x1="157" y1="207.24628579279056" x2="157" y2="232.5195768649551" stroke="#424852"/>
<rect x="150.71142857142857" y="208.74766942083994" width="12.577142857142857" height="20.535591623651698" fill="#d5dbe2" stroke="#424852"/>
<line x1="177.28571428571428" y1="200.60683374874952" x2="177.28571428571428" y2="237.64096324063414" stroke="#424852"/>
<rect x="170.99714285714285" y="208.74766942083994" width="12.577142857142857" height="27.492002433615767" fill="#59616c" stroke="#424852"/>
<line x1="197.57142857142856" y1="234.98851883108122" x2="197.57142857142856" y2="259.24420544423356" stroke="#424852"/>
<rect x="191.28285714285713" y="236.2396718544557" width="12.577142857142857" height="11.043510686318257" fill="#59616c" stroke="#424852"/>
<line x1="217.85714285714286" y1="207.1962396718551" x2="217.85714285714286" y2="250.76972896590988" stroke="#424852"/>
<rect x="211.56857142857143" y="229.95054265695802" width="12.577142857142857" height="17.349321924126144" fill="#d5dbe2" stroke="#424852"/>
<line x1="238.14285714285714" y1="185.96000235511178" x2="238.14285714285714" y2="233.60390948521297" stroke="#424852"/>
<rect x="231.8542857142857" y="192.9831413263215" width="12.577142857142857" height="36.98408337094918" fill="#d5dbe2" stroke="#424852"/>
<line x1="258.42857142857144" y1="170.7126175102557" x2="258.42857142857144" y2="209.2981767511252" stroke="#424852"/>
<rect x="252.14000000000001" y="192.9831413263215" width="12.577142857142857" height="16.31503542480371" fill="#59616c" stroke="#424852"/>
<line x1="278.7142857142857" y1="142.01950817420095" x2="278.7142857142857" y2="305.6703236315831" stroke="#424852"/>
<rect x="272.4257142857143" y="208.99790002551484" width="12.577142857142857" height="86.41296881439749" fill="#59616c" stroke="#424852"/>
<line x1="299" y1="261.329460483191" x2="299" y2="328.3912625360632" stroke="#424852"/>
<rect x="292.7114285714286" y="288.17086334465057" width="12.577142857142857" height="7.240005495261755" fill="#d5dbe2" stroke="#424852"/>
<line x1="319.2857142857143" y1="278.3284595607713" x2="319.2857142857143" y2="356.0834494534183" stroke="#424852"/>
<rect x="312.9971428571429" y="288.17086334465057" width="12.577142857142857" height="34.264910800150574" fill="#59616c" stroke="#424852"/>
<line x1="339.57142857142856" y1="277.8446803917342" x2="339.57142857142856" y2="343.57191921967353" stroke="#424852"/>
<rect x="333.28285714285715" y="280.99758601063684" width="12.577142857142857" height="41.42150609385169" fill="#d5dbe2" stroke="#424852"/>
<line x1="359.85714285714283" y1="257.0421761230949" x2="359.85714285714283" y2="312.25972955468865" stroke="#424852"/>
<rect x="353.56857142857143" y="280.99758601063684" width="12.577142857142857" height="12.461484112811775" fill="#59616c" stroke="#424852"/>
<line x1="380.14285714285717" y1="264.44900202147085" x2="380.14285714285717" y2="325.6387258846393" stroke="#424852"/>
<rect x="373.85428571428577" y="271.0384079445765" width="12.577142857142857" height="22.420662178872135" fill="#d5dbe2" stroke="#424852"/>
<line x1="400.42857142857144" y1="216.02103899672213" x2="400.42857142857144" y2="288.3710478283924" stroke="#424852"/>
<rect x="394.14000000000004" y="216.8050948913721" width="12.577142857142857" height="54.23331305320437" fill="#d5dbe2" stroke="#424852"/>
<line x1="420.7142857142857" y1="144.9221831884288" x2="420.7142857142857" y2="222.5770808392049" stroke="#424852"/>
<rect x="414.4257142857143" y="183.25751182462338" width="12.577142857142857" height="33.54758306674873" fill="#d5dbe2" stroke="#424852"/>
<line x1="441" y1="163.40588385374826" x2="441" y2="212.28426196691132" stroke="#424852"/>
<rect x="434.7114285714286" y="183.20746570368792" width="12.577142857142857" height="8.941573607050572" fill="#59616c" stroke="#424852"/>
<line x1="461.2857142857143" y1="182.590230212157" x2="461.2857142857143" y2="247.83368987105922" stroke="#424852"/>
<rect x="454.9971428571429" y="192.1490393107385" width="12.577142857142857" height="39.7032559417502" fill="#59616c" stroke="#424852"/>
<line x1="481.57142857142856" y1="174.1491178144562" x2="481.57142857142856" y2="235.0886110729497" stroke="#424852"/>
<rect x="475.28285714285715" y="178.1361254489443" width="12.577142857142857" height="53.716169803544375" fill="#d5dbe2" stroke="#424852"/>
<line x1="501.85714285714283" y1="161.20385453260968" x2="501.85714285714283" y2="182.5235020509113" stroke="#424852"/>
<rect x="495.56857142857143" y="170.5291150668265" width="12.577142857142857" height="7.623692422428036" fill="#d5dbe2" stroke="#424852"/>
<line x1="522.1428571428571" y1="115.86206896551799" x2="522.1428571428571" y2="192.19908543167395" stroke="#424852"/>
<rect x="515.8542857142857" y="170.5291150668265" width="12.577142857142857" height="9.391988695464903" fill="#59616c" stroke="#424852"/>
<line x1="542.4285714285714" y1="176.8682903852572" x2="542.4285714285714" y2="207.84683924400886" stroke="#424852"/>
<rect x="536.14" y="179.93778580260405" width="12.577142857142857" height="24.62269150000833" fill="#59616c" stroke="#424852"/>
<line x1="562.7142857142858" y1="184.9590799364122" x2="562.7142857142858" y2="214.2861068043105" stroke="#424852"/>
<rect x="556.4257142857143" y="204.56047730261238" width="12.577142857142857" height="6.405903479678784" fill="#59616c" stroke="#424852"/>
<line x1="583" y1="177.13520303024472" x2="583" y2="210.96638078229117" stroke="#424852"/>
<rect x="576.7114285714285" y="184.42525464643956" width="12.577142857142857" height="26.541126135851613" fill="#d5dbe2" stroke="#424852"/>
<line x1="603.2857142857143" y1="173.78211292760017" x2="603.2857142857143" y2="209.99882244421443" stroke="#424852"/>
<rect x="596.9971428571429" y="184.40857260612694" width="12.577142857142857" height="8.908209526427754" fill="#59616c" stroke="#424852"/>
<line x1="623.5714285714286" y1="174.29925617726258" x2="623.5714285714286" y2="224.81247424096878" stroke="#424852"/>
<rect x="617.2828571428571" y="193.30010009224205" width="12.577142857142857" height="10.976782525072593" fill="#59616c" stroke="#424852"/>
<line x1="643.8571428571429" y1="202.6086785861487" x2="643.8571428571429" y2="240.6437304967329" stroke="#424852"/>
<rect x="637.5685714285714" y="204.27688261731464" width="12.577142857142857" height="27.391910191744813" fill="#59616c" stroke="#424852"/>
<line x1="664.1428571428571" y1="223.0775420485547" x2="664.1428571428571" y2="238.57515749808806" stroke="#424852"/>
<rect x="657.8542857142857" y="231.65211076874928" width="12.577142857142857" height="6.739544285909545" fill="#59616c" stroke="#424852"/>
<line x1="684.4285714285714" y1="235.0886110729497" x2="684.4285714285714" y2="298.6805487409962" stroke="#424852"/>
<rect x="678.14" y="238.3749730143462" width="12.577142857142857" height="56.13506564873501" fill="#59616c" stroke="#424852"/>
<line x1="704.7142857142857" y1="274.6750927325188" x2="704.7142857142857" y2="316.3301473907327" stroke="#424852"/>
<rect x="698.4257142857142" y="294.49335662277105" width="12.577142857142857" height="18.06664965752799" fill="#59616c" stroke="#424852"/>
<line x1="725" y1="303.48497635075466" x2="725" y2="339.38472710144595" stroke="#424852"/>
<rect x="718.7114285714285" y="312.56000628029904" width="12.577142857142857" height="23.888681726296284" fill="#59616c" stroke="#424852"/>
<line x1="745.2857142857143" y1="336.4486880065953" x2="745.2857142857143" y2="377.60328145545947" stroke="#424852"/>
<rect x="738.9971428571429" y="336.4486880065953" width="12.577142857142857" height="34.81541813043344" fill="#59616c" stroke="#424852"/>
<line x1="765.5714285714286" y1="359.1529448707628" x2="765.5714285714286" y2="439.32683060860046" stroke="#424852"/>
<rect x="759.2828571428571" y="371.26410613702876" width="12.577142857142857" height="45.458559849272774" fill="#59616c" stroke="#424852"/>
<line x1="785.8571428571429" y1="379.438305889742" x2="785.8571428571429" y2="432.43714795988456" stroke="#424852"/>
<rect x="779.5685714285714" y="410.81722371597493" width="12.577142857142857" height="5.905442270326603" fill="#d5dbe2" stroke="#424852"/>
<line x1="806.1428571428571" y1="406.51325731556625" x2="806.1428571428571" y2="456.17569132337684" stroke="#424852"/>
<rect x="799.8542857142857" y="410.81722371597493" width="12.577142857142857" height="45.091554962414364" fill="#59616c" stroke="#424852"/>
<line x1="826.4285714285714" y1="449.6696956018295" x2="826.4285714285714" y2="501.2172001648582" stroke="#424852"/>
<rect x="820.14" y="455.8920966380791" width="12.577142857142857" height="29.110160343846246" fill="#59616c" stroke="#424852"/>
<line x1="846.7142857142857" y1="455.60850195278135" x2="846.7142857142857" y2="584.96104252939" stroke="#424852"/>
<rect x="840.4257142857142" y="485.0189390222356" width="12.577142857142857" height="87.79757816026563" fill="#59616c" stroke="#424852"/>
<line x1="867" y1="488.68898789080066" x2="867" y2="614.137931034482" stroke="#424852"/>
<rect x="860.7114285714285" y="505.0040233156044" width="12.577142857142857" height="67.81249386689683" fill="#d5dbe2" stroke="#424852"/>
<line x1="887.2857142857143" y1="448.0849017722219" x2="887.2857142857143" y2="509.44144603850685" stroke="#424852"/>
<rect x="880.9971428571429" y="481.21543383117904" width="12.577142857142857" height="23.805271524738032" fill="#d5dbe2" stroke="#424852"/>
<line x1="907.5714285714286" y1="432.38710183894904" x2="907.5714285714286" y2="485.26916962691047" stroke="#424852"/>
<rect x="901.2828571428571" y="449.76978784370044" width="12.577142857142857" height="31.42896394716604" fill="#d5dbe2" stroke="#424852"/>
<line x1="927.8571428571429" y1="436.15724294938514" x2="927.8571428571429" y2="462.2813180774453" stroke="#424852"/>
<rect x="921.5685714285714" y="449.76978784370044" width="12.577142857142857" height="11.694110258472051" fill="#59616c" stroke="#424852"/>
<line x1="948.1428571428571" y1="428.0497713579175" x2="948.1428571428571" y2="461.4638981021725" stroke="#424852"/>
<rect x="941.8542857142857" y="434.57244911977745" width="12.577142857142857" height="26.891448982395048" fill="#d5dbe2" stroke="#424852"/>
<line x1="968.4285714285714" y1="433.1544756932864" x2="968.4285714285714" y2="466.7187408003453" stroke="#424852"/>
<rect x="962.14" y="434.57244911977745" width="12.577142857142857" height="29.944262359429274" fill="#59616c" stroke="#424852"/>
<line x1="988.7142857142857" y1="441.6623162522328" x2="988.7142857142857" y2="466.70205876003513" stroke="#424852"/>
<rect x="982.4257142857142" y="463.5324711008198" width="12.577142857142857" height="1" fill="#d5dbe2" stroke="#424852"/>
<line x1="1009" y1="451.80499676172246" x2="1009" y2="479.9642808078046" stroke="#424852"/>
<rect x="1002.7114285714285" y="463.5491531411299" width="12.577142857142857" height="10.442957235099982" fill="#59616c" stroke="#424852"/>
<line x1="1029.2857142857142" y1="445.88287245108324" x2="1029.2857142857142" y2="485.0523031028608" stroke="#424852"/>
<rect x="1022.9971428571428" y="458.5779051282548" width="12.577142857142857" height="15.430887288285305" fill="#d5dbe2" stroke="#424852"/>
<line x1="1049.5714285714284" y1="418.4742802190258" x2="1049.5714285714284" y2="468.35358075088845" stroke="#424852"/>
<rect x="1043.282857142857" y="427.2323513826472" width="12.577142857142857" height="31.3288717052975" fill="#d5dbe2" stroke="#424852"/>
<line x1="1069.857142857143" y1="406.29639079151417" x2="1069.857142857143" y2="441.07844484132477" stroke="#424852"/>
<rect x="1063.5685714285714" y="415.4548309226144" width="12.577142857142857" height="11.777520460032804" fill="#d5dbe2" stroke="#424852"/>
<line x1="826.4285714285714" y1="76" x2="826.4285714285714" y2="654" stroke="#756b8f" stroke-width="2" stroke-dasharray="8 6"/>
<text x="746.4285714285714" y="692" class="small">highlighted interaction</text>
</svg>
